<svg width="30" height="29" viewBox="0 0 30 29" fill="none" xmlns="http://www.w3.org/2000/svg">
<path d="M15 10V3C21.309 3 26.5 8.191 26.5 14.5C26.5 20.809 21.309 26 15 26C8.691 26 3.5 20.809 3.5 14.5C3.5 11.451 4.712 8.524 6.868 6.368" stroke="#7933FF" stroke-width="3" stroke-miterlimit="10"/>
<path d="M9.293 10.207C9.10549 10.0195 9.00015 9.76518 9.00015 9.5C9.00015 9.23483 9.10549 8.98051 9.293 8.793C9.48051 8.60549 9.73483 8.50015 10 8.50015C10.2652 8.50015 10.5195 8.60549 10.707 8.793L16.414 13.086C16.605 13.2705 16.7574 13.4912 16.8622 13.7352C16.967 13.9792 17.0222 14.2416 17.0245 14.5072C17.0268 14.7728 16.9762 15.0361 16.8756 15.2819C16.7751 15.5277 16.6266 15.751 16.4388 15.9388C16.251 16.1266 16.0277 16.2751 15.7819 16.3756C15.5361 16.4762 15.2728 16.5268 15.0072 16.5245C14.7416 16.5222 14.4792 16.467 14.2352 16.3622C13.9912 16.2574 13.7705 16.105 13.586 15.914L9.293 10.207Z" fill="#7933FF" fill-opacity="0.6"/>
<path d="M9.293 10.207C9.10549 10.0195 9.00015 9.76518 9.00015 9.5C9.00015 9.23483 9.10549 8.98051 9.293 8.793C9.48051 8.60549 9.73483 8.50015 10 8.50015C10.2652 8.50015 10.5195 8.60549 10.707 8.793L16.414 13.086C16.605 13.2705 16.7574 13.4912 16.8622 13.7352C16.967 13.9792 17.0222 14.2416 17.0245 14.5072C17.0268 14.7728 16.9762 15.0361 16.8756 15.2819C16.7751 15.5277 16.6266 15.751 16.4388 15.9388C16.251 16.1266 16.0277 16.2751 15.7819 16.3756C15.5361 16.4762 15.2728 16.5268 15.0072 16.5245C14.7416 16.5222 14.4792 16.467 14.2352 16.3622C13.9912 16.2574 13.7705 16.105 13.586 15.914L9.293 10.207Z" stroke="#7933FF"/>
</svg>
